# xmcd
#
# Track frame offsets:
#	150
#	16432
#	34930
#	48428
#	62221
#	78853
#	98314
#	111831
#	128249
#	141912
#	161470
#	181183
#	194166
#	223518
#	236819
#	249791
#	266901
#	282594
#	299373
#	315194
#
# Disc length: 4430 seconds
#
# Revision: 1
# Processed by: cddbd v1.4PL0 Copyright (c) Steve Scherf et al.
# Submitted via: audiograbber 1.81.03
#
DISCID=23114c14
DTITLE=Brooks and Dunn - Bob's Favorites
DYEAR=1999
DGENRE=Country
TTITLE0=Still In Love With You
TTITLE1=Hurt Train
TTITLE2=Hard Workin' Man
TTITLE3=Little Miss Honky Tonk
TTITLE4=How Long Gone
TTITLE5=Why Would I Say Goodbye
TTITLE6=Brand New Man
TTITLE7=That Ain't No Way To Go
TTITLE8=She's The Kind Of Trouble
TTITLE9=Can't Stop My Heart
TTITLE10=Neon Moon
TTITLE11=Redneck Rhythm And Blues
TTITLE12=Boot Scootin' Boogie
TTITLE13=Goin' Under Gettin' Over You
TTITLE14=Cheating On The Blues
TTITLE15=Missing You
TTITLE16=She's Not The Cheatin' Kind
TTITLE17=Rock My World
TTITLE18=My Maria
TTITLE19=Lost And Found
EXTD=
EXTT0=
EXTT1=
EXTT2=
EXTT3=
EXTT4=
EXTT5=
EXTT6=
EXTT7=
EXTT8=
EXTT9=
EXTT10=
EXTT11=
EXTT12=
EXTT13=
EXTT14=
EXTT15=
EXTT16=
EXTT17=
EXTT18=
EXTT19=
PLAYORDER=
